<mxfile host="app.diagrams.net" modified="2024-05-13T17:20:27.266Z" agent="Mozilla/5.0 (Windows NT 10.0; Win64; x64) AppleWebKit/537.36 (KHTML, like Gecko) Chrome/124.0.0.0 Safari/537.36" version="24.4.0" etag="Kg5U5XcSkDRn_Ixk4PcC" type="github">
  <diagram name="Seite-1" id="42anVfeU-HQc3xn0C0Uy">
    <mxGraphModel>
      <root>
        <mxCell id="0" />
        <mxCell id="1" parent="0" />
      </root>
    </mxGraphModel>
  </diagram>
</mxfile>
